<?xml version="1.0" standalone="no"?><!DOCTYPE svg PUBLIC "-//W3C//DTD SVG 1.1//EN" "http://www.w3.org/Graphics/SVG/1.1/DTD/svg11.dtd"><svg t="1514687534341" class="icon" style="" viewBox="0 0 1117 1024" version="1.1" xmlns="http://www.w3.org/2000/svg" p-id="6025" xmlns:xlink="http://www.w3.org/1999/xlink" width="139.625" height="128"><defs><style type="text/css"></style></defs><path d="M557.335273 319.301818a68.701091 68.701091 0 0 0-69.632 67.584c0 37.329455 31.185455 67.677091 69.632 67.677091a68.701091 68.701091 0 0 0 69.632-67.677091 68.701091 68.701091 0 0 0-69.632-67.677091zM1058.909091 3.351273H55.854545A54.737455 54.737455 0 0 0 0 57.157818v704.512c0 29.696 24.948364 53.713455 55.761455 53.713455h279.272727L250.88 1024l334.196364-208.523636h473.925818c30.72 0 55.761455-24.203636 55.761454-53.806546V57.157818a54.737455 54.737455 0 0 0-55.761454-53.713454z m0 725.178182c0 14.801455-12.474182 26.810182-27.927273 26.810181H557.428364L390.050909 862.952727l42.170182-107.426909H83.595636c-15.36 0-27.927273-12.101818-27.927272-26.810182V84.061091c0-14.894545 12.567273-26.903273 27.927272-26.903273h947.479273c15.36 0 27.927273 12.101818 27.927273 26.903273v644.561454zM812.776727 319.208727a68.701091 68.701091 0 0 0-69.632 67.677091c0 37.329455 31.185455 67.677091 69.632 67.677091a68.701091 68.701091 0 0 0 69.632-67.677091 68.701091 68.701091 0 0 0-69.632-67.677091z m-510.882909 0a68.701091 68.701091 0 0 0-69.632 67.677091c0 37.329455 31.185455 67.677091 69.632 67.677091a68.701091 68.701091 0 0 0 69.632-67.677091 68.701091 68.701091 0 0 0-69.632-67.677091z" p-id="6026"></path></svg>