<?xml version="1.0" standalone="no"?><!DOCTYPE svg PUBLIC "-//W3C//DTD SVG 1.1//EN" "http://www.w3.org/Graphics/SVG/1.1/DTD/svg11.dtd"><svg t="1514687510522" class="icon" style="" viewBox="0 0 1024 1024" version="1.1" xmlns="http://www.w3.org/2000/svg" p-id="5348" xmlns:xlink="http://www.w3.org/1999/xlink" width="128" height="128"><defs><style type="text/css"></style></defs><path d="M512 857.6C256 857.6 32 588.8 32 505.6S256 153.6 512 153.6c262.4 0 480 268.8 480 352s-217.6 352-480 352z m0-640c-230.4 0-416 243.2-416 288 0 44.8 185.6 288 416 288s416-243.2 416-288S742.4 217.6 512 217.6z" fill="#333333" p-id="5349"></path><path d="M512 665.6c-89.6 0-160-70.4-160-160S422.4 345.6 512 345.6s160 70.4 160 160c0 83.2-70.4 160-160 160z m0-256c-51.2 0-96 38.4-96 96S460.8 601.6 512 601.6s96-44.8 96-96S563.2 409.6 512 409.6z" fill="#333333" p-id="5350"></path></svg>