<?xml version="1.0" standalone="no"?><!DOCTYPE svg PUBLIC "-//W3C//DTD SVG 1.1//EN" "http://www.w3.org/Graphics/SVG/1.1/DTD/svg11.dtd"><svg t="1514687462127" class="icon" style="" viewBox="0 0 1024 1024" version="1.1" xmlns="http://www.w3.org/2000/svg" p-id="3293" xmlns:xlink="http://www.w3.org/1999/xlink" width="128" height="128"><defs><style type="text/css"></style></defs><path d="M207.36 327.68c6.144 0 11.264-5.12 11.264-11.264v-43.52c0-6.144-5.12-11.264-11.264-11.264-6.144 0-11.264 5.12-11.264 11.264v43.52c-0.512 5.632 4.608 11.264 11.264 11.264z" fill="" p-id="3294"></path><path d="M204.288 636.928h26.112v-50.176c40.448-8.192 70.656-44.032 70.656-86.528v-47.104h228.352s70.656-2.048 69.632 66.56l-59.904 224.768h391.68l-9.216-37.376-46.592-396.288v-16.896c0-48.64-39.424-88.576-88.576-88.576h-73.728c-20.48 0-38.912 7.168-53.76 18.432l-380.928 5.12c-16.384-17.92-39.424-29.184-65.024-29.184h-16.384c-48.64 0-88.576 39.424-88.576 88.576V500.224c0 46.592 35.84 83.968 81.92 87.552v152.576h14.848l-0.512-103.424z m541.696-371.2c60.416 0 109.568 49.152 109.568 109.568 0 60.416-49.152 109.568-109.568 109.568-60.416 0-109.568-49.152-109.568-109.568 0-60.416 49.152-109.568 109.568-109.568z m-550.4 7.168c0-6.144 5.12-11.264 11.264-11.264 6.144 0 11.264 5.12 11.264 11.264v43.52c0 6.144-5.12 11.264-11.264 11.264-6.144 0-11.264-5.12-11.264-11.264v-43.52z m0 95.744c0-6.144 5.12-11.264 11.264-11.264 6.144 0 11.264 5.12 11.264 11.264v43.52c0 6.144-5.12 11.264-11.264 11.264-6.144 0-11.264-5.12-11.264-11.264V368.64z" fill="" p-id="3295"></path><path d="M745.984 457.728c46.592 0 84.48-37.888 84.48-84.48s-37.888-84.48-84.48-84.48-84.48 37.888-84.48 84.48 37.888 84.48 84.48 84.48zM996.352 757.76H329.216c-3.584-9.728-12.8-16.896-23.552-16.896h-101.376v0.512H189.44v-0.512h-91.648c-11.264 0-20.48 7.168-23.552 16.896h-37.888c-12.8 0-23.04 10.24-23.04 23.04s10.24 23.04 23.04 23.04h960c12.8 0 23.04-10.24 23.04-23.04s-10.24-23.04-23.04-23.04z" fill="" p-id="3296"></path><path d="M709.632 583.68h17.92v63.488h-17.92V583.68z" fill="#FFFFFF" p-id="3297"></path><path d="M667.648 665.6c-1.536 11.776-9.216 17.92-23.552 17.92-2.048 0-6.144-0.512-12.288-1.024l-3.584-13.824c6.144 0.512 10.752 1.024 13.824 1.024 6.656 0 10.752-3.584 11.776-10.752 1.024-6.656 1.536-32.768 1.536-77.312h-16.896v4.096c-0.512 46.08-10.752 79.36-30.208 100.352l-12.288-10.752c17.92-18.432 27.136-48.64 27.136-89.6v-4.096h-23.552v-14.848h23.552v-26.624h14.848v26.624h31.744c0.512 53.248-0.512 86.528-2.048 98.816z m67.584 16.896h-14.848v-9.728H696.32v9.728h-14.848V557.568h53.248v124.928z m160.256-4.096h-137.216v-14.848h61.952V563.712h-53.248v-14.336h121.856v14.336h-53.76v99.84h60.416v14.848z" fill="#FFFFFF" p-id="3298"></path><path d="M696.832 573.44h24.064v86.016h-24.064z" fill="" p-id="3299"></path></svg>