<?xml version="1.0" standalone="no"?><!DOCTYPE svg PUBLIC "-//W3C//DTD SVG 1.1//EN" "http://www.w3.org/Graphics/SVG/1.1/DTD/svg11.dtd"><svg t="1514687501104" class="icon" style="" viewBox="0 0 1024 1024" version="1.1" xmlns="http://www.w3.org/2000/svg" p-id="4669" xmlns:xlink="http://www.w3.org/1999/xlink" width="128" height="128"><defs><style type="text/css"></style></defs><path d="M798.20976 575.880337c-16.955143 0-30.699155 13.745035-30.699155 30.699155l0 289.370238-504.969382 0 0-289.370238c0-16.95412-13.745035-30.699155-30.699155-30.699155s-30.699155 13.745035-30.699155 30.699155l0 320.069393c0 16.95412 13.745035 30.699155 30.699155 30.699155l566.367692 0c16.95412 0 30.699155-13.745035 30.699155-30.699155l0-320.069393C828.908915 589.625372 815.16388 575.880337 798.20976 575.880337zM945.556495 455.461877 535.486389 71.814534c-11.786429-11.026113-30.099498-11.043509-41.90537-0.038886l-411.600971 383.66474c-12.402459 11.560279-13.085003 30.985681-1.524725 43.388139 6.04671 6.485708 14.243385 9.766425 22.463595 9.766425 7.49571 0 15.008817-2.729155 20.924544-8.242723l390.630378-364.117564 389.134306 364.062306c12.380969 11.582791 31.807395 10.936062 43.391209-1.444907C958.58317 486.472117 957.936441 467.045692 945.556495 455.461877z" p-id="4670"></path></svg>